<svg width="198" height="58" viewBox="0 0 198 58" fill="none" xmlns="http://www.w3.org/2000/svg">
<path d="M4.86 44.36C3.7 44.36 2.9 44.3 2.46 44.18C1.3 43.86 0.72 43.48 0.72 43.04C0.72 42.8 0.98 42.68 1.5 42.68C1.74 42.68 2.04 42.7 2.4 42.74C2.8 42.82 3.24 42.9 3.72 42.98C4.76 43.22 5.54 43.34 6.06 43.34C8.9 43.34 11.56 42.04 14.04 39.44C14.96 38.44 15.9 37.24 16.86 35.84C17.82 34.4 18.74 32.76 19.62 30.92C20.3 29.52 20.96 28.1 21.6 26.66C22.28 25.22 22.94 23.78 23.58 22.34C28.34 12.5 33.14 6.12 37.98 3.2C35.1 2.24 31.86 1.76 28.26 1.76C24.14 1.76 20.42 2.42 17.1 3.74C13.22 5.3 10.36 7.64 8.52 10.76C7.36 12.72 6.78 14.68 6.78 16.64C6.78 18.68 7.4 20.38 8.64 21.74C9.96 23.1 11.64 23.78 13.68 23.78C15.96 23.78 17.98 22.96 19.74 21.32C21.46 19.72 22.32 17.76 22.32 15.44C22.32 13.88 21.9 12.6 21.06 11.6C20.14 10.56 18.94 10.04 17.46 10.04C16.22 10.04 15.18 10.4 14.34 11.12C13.38 11.96 12.9 12.96 12.9 14.12C12.9 15.08 13.42 15.56 14.46 15.56C14.5 15.56 14.56 15.52 14.64 15.44C14.68 15.36 14.78 15.28 14.94 15.2C15.06 15.24 15.12 15.32 15.12 15.44C15.12 15.84 14.88 16.04 14.4 16.04C13.08 16.04 12.42 15.38 12.42 14.06C12.42 12.78 12.98 11.66 14.1 10.7C15.22 9.78 16.42 9.32 17.7 9.32C19.34 9.32 20.76 9.88 21.96 11C23.04 12.12 23.58 13.54 23.58 15.26C23.58 17.9 22.56 20.12 20.52 21.92C18.48 23.64 16.14 24.5 13.5 24.5C11.1 24.5 9.04 23.74 7.32 22.22C5.64 20.7 4.8 18.72 4.8 16.28C4.8 14.64 5.2 13.02 6 11.42C7.8 7.78 11.04 5.04 15.72 3.2C19.52 1.72 23.82 0.979997 28.62 0.979997C32.5 0.979997 36.06 1.46 39.3 2.42C41.3 1.42 43.36 0.919997 45.48 0.919997C46.48 0.919997 47.46 1.08 48.42 1.4C49.58 1.88 50.16 2.58 50.16 3.5C50.16 4.5 49.88 5 49.32 5C49.16 5 49.08 4.64 49.08 3.92C49.08 2.44 47.82 1.7 45.3 1.7C43.74 1.7 42.12 2.06 40.44 2.78C46.88 5.02 50.1 8.68 50.1 13.76C50.1 18.24 48.12 21.8 44.16 24.44C40.76 26.76 36.7 27.92 31.98 27.92C31.58 27.92 31.14 27.9 30.66 27.86C30.18 27.82 29.64 27.76 29.04 27.68C27.44 27.52 26.64 27.28 26.64 26.96C26.64 26.64 26.74 26.48 26.94 26.48H27H26.94C26.94 26.52 27.22 26.6 27.78 26.72C28.3 26.88 29 26.96 29.88 26.96C33.92 26.96 37.72 25.8 41.28 23.48C45.2 20.84 47.16 17.58 47.16 13.7C47.16 9.1 44.44 5.72 39 3.56C34.76 6.16 30.82 12.06 27.18 21.26C26.86 22.14 26.46 23.24 25.98 24.56C25.54 25.84 24.94 27.34 24.18 29.06C22.5 32.94 20.28 36.12 17.52 38.6C14.76 41.04 11.52 42.82 7.8 43.94C6.96 44.22 5.98 44.36 4.86 44.36ZM51.9769 41.24C49.5769 41.24 48.3769 40.18 48.3769 38.06C48.3769 36.38 49.0369 34.46 50.3569 32.3C50.7969 31.54 52.0169 29.84 54.0169 27.2C55.3369 25.44 55.9969 24.2 55.9969 23.48C55.9969 22.8 55.4369 22.46 54.3169 22.46C53.5569 22.46 52.7169 22.48 51.7969 22.52C50.9169 22.56 50.1969 22.6 49.6369 22.64C49.5169 23.28 49.3369 24.02 49.0969 24.86C48.8569 25.7 48.5769 26.58 48.2569 27.5C48.0569 28.06 47.7369 28.82 47.2969 29.78C46.8969 30.74 46.3569 31.76 45.6769 32.84C45.5569 33 45.4569 33.08 45.3769 33.08C45.3369 33.08 45.3169 33.04 45.3169 32.96C45.3169 32.76 45.3969 32.5 45.5569 32.18C45.8769 31.62 46.2369 30.94 46.6369 30.14C47.0369 29.3 47.4169 28.38 47.7769 27.38C48.0969 26.5 48.3769 25.58 48.6169 24.62C48.8969 23.62 49.0569 22.94 49.0969 22.58C48.1369 21.98 47.6569 21.08 47.6569 19.88C47.6569 18.52 48.1369 17.84 49.0969 17.84C49.7769 17.84 50.1169 18.46 50.1169 19.7C50.1169 19.98 50.0769 20.32 49.9969 20.72C49.9169 21.12 49.8169 21.6 49.6969 22.16C50.2569 22.12 51.1369 22.08 52.3369 22.04C53.5769 21.96 54.7569 21.92 55.8769 21.92C57.9169 21.92 58.9369 22.54 58.9369 23.78C58.9369 25.1 57.3569 27.82 54.1969 31.94C53.5169 32.94 52.7569 34.08 51.9169 35.36C51.1169 36.6 50.7169 37.88 50.7169 39.2C50.7169 39.56 50.7969 39.9 50.9569 40.22C51.1169 40.54 51.4569 40.7 51.9769 40.7C53.6969 40.7 55.5969 39.66 57.6769 37.58C58.7169 36.54 59.6769 35.42 60.5569 34.22C61.4369 33.02 62.2369 31.68 62.9569 30.2C63.1169 29.88 63.2569 29.72 63.3769 29.72C63.4569 29.72 63.4969 29.78 63.4969 29.9C63.4969 30.1 63.4369 30.32 63.3169 30.56C62.6369 31.96 61.8169 33.32 60.8569 34.64C59.8969 35.92 58.8369 37.14 57.6769 38.3C55.7169 40.26 53.8169 41.24 51.9769 41.24ZM67.3631 41.54C65.6031 41.54 64.2631 40.78 63.3431 39.26C62.5031 37.98 62.0831 36.42 62.0831 34.58C62.0831 31.42 63.0831 28.48 65.0831 25.76C67.2831 22.8 69.9231 21.32 73.0031 21.32C74.5631 21.32 75.7631 21.86 76.6031 22.94C77.4031 23.98 77.8031 25.3 77.8031 26.9C77.8031 27.62 77.7231 28.36 77.5631 29.12C77.4431 29.88 77.2431 30.68 76.9631 31.52C76.3631 33.28 75.6231 34.66 74.7431 35.66L74.8631 35.84C75.2631 36.12 75.7431 36.26 76.3031 36.26C77.4631 36.26 78.4431 35.88 79.2431 35.12C80.0431 34.36 80.9431 33 81.9431 31.04C81.9831 30.88 82.0631 30.8 82.1831 30.8C82.2631 30.8 82.3231 30.86 82.3631 30.98C82.4031 31.06 82.3831 31.18 82.3031 31.34C81.4631 33.1 80.5631 34.44 79.6031 35.36C78.6831 36.28 77.6031 36.74 76.3631 36.74C75.5631 36.74 74.9431 36.52 74.5031 36.08C74.1031 36.8 73.6631 37.48 73.1831 38.12C72.7031 38.72 72.1631 39.26 71.5631 39.74C70.2031 40.94 68.8031 41.54 67.3631 41.54ZM67.7831 41.06C69.9031 41.06 71.9831 39.44 74.0231 36.2C74.0231 36.08 74.0831 35.96 74.2031 35.84C73.4831 34.64 73.1231 33.5 73.1231 32.42C73.1231 32.38 73.1231 32.3 73.1231 32.18C73.1231 32.02 73.1431 31.82 73.1831 31.58C73.2231 31.14 73.3031 30.7 73.4231 30.26C73.5431 29.78 73.7431 29.34 74.0231 28.94C74.6231 27.98 75.3431 27.5 76.1831 27.5H76.7231C76.8831 27.54 77.0031 27.56 77.0831 27.56C77.1631 27.56 77.2231 27.56 77.2631 27.56C77.2631 23.96 76.1231 22.16 73.8431 22.16C71.9231 22.16 70.1031 23.32 68.3831 25.64C66.9831 27.48 65.9831 29.54 65.3831 31.82C65.0231 33.06 64.8431 34.36 64.8431 35.72C64.8431 39.28 65.8231 41.06 67.7831 41.06ZM90.1177 17.66C88.7977 17.66 88.1377 17.08 88.1377 15.92C88.1377 15.2 88.3777 14.64 88.8577 14.24C89.3377 13.76 89.8977 13.52 90.5377 13.52C91.8577 13.52 92.5177 14.1 92.5177 15.26C92.5177 15.9 92.2777 16.46 91.7977 16.94C91.3177 17.42 90.7577 17.66 90.1177 17.66ZM64.6777 57.08C62.3177 57.08 61.1377 56.38 61.1377 54.98C61.1377 53.58 62.5377 51.74 65.3377 49.46C67.3777 47.78 71.2577 45.96 76.9777 44C78.2577 41.2 79.6577 37.94 81.1777 34.22C82.6977 30.5 84.3577 26.34 86.1577 21.74L86.2777 21.68C86.3577 21.72 86.5177 21.74 86.7577 21.74C87.5977 21.74 88.6977 21.46 90.0577 20.9L90.1777 21.02L80.6377 42.62C85.9177 40.26 89.8377 36.44 92.3977 31.16C92.5177 30.96 92.6177 30.86 92.6977 30.86C92.8977 30.86 92.9377 31.02 92.8177 31.34C90.1377 36.94 85.9777 40.96 80.3377 43.4C80.1777 43.72 79.9777 44.12 79.7377 44.6C79.5377 45.12 79.2977 45.72 79.0177 46.4C78.1777 48.56 76.6977 50.64 74.5777 52.64C72.4177 54.68 70.2377 56 68.0377 56.6C66.8377 56.92 65.7177 57.08 64.6777 57.08ZM63.8977 56.54C65.8177 56.54 67.8777 55.68 70.0777 53.96C71.9977 52.52 73.5177 50.8 74.6377 48.8C74.9177 48.32 75.2177 47.74 75.5377 47.06C75.8577 46.42 76.2177 45.66 76.6177 44.78C73.1377 45.94 69.8977 47.48 66.8977 49.4C63.4577 51.56 61.7377 53.48 61.7377 55.16C61.7377 56.08 62.4577 56.54 63.8977 56.54ZM103.187 44.42C99.6673 44.42 96.7473 43.48 94.4273 41.6C91.9073 39.56 90.6473 36.84 90.6473 33.44C90.6473 30.92 91.3273 28.6 92.6873 26.48C94.0473 24.36 95.8873 22.84 98.2073 21.92C97.9273 20.92 97.7873 19.78 97.7873 18.5C97.7873 15.14 98.7673 12.06 100.727 9.26C102.767 6.3 105.347 4.32 108.467 3.32C111.667 2.2 114.867 1.64 118.067 1.64C120.027 1.64 122.107 1.9 124.307 2.42C126.507 2.94 128.827 3.78 131.267 4.94C133.347 5.9 135.407 6.9 137.447 7.94C139.487 8.94 141.547 9.96 143.627 11C145.747 9.68 147.727 9.02 149.567 9.02C152.887 9.02 154.547 10.1 154.547 12.26C154.547 13.7 153.747 14.42 152.147 14.42C151.107 14.42 149.147 13.82 146.267 12.62C144.227 15.18 142.527 18.76 141.167 23.36C141.007 23.88 140.807 24.5 140.567 25.22C140.367 25.94 140.107 26.8 139.787 27.8C138.747 30.72 137.607 33.16 136.367 35.12C135.167 37.08 133.927 38.56 132.647 39.56C137.087 37.08 142.447 32.12 148.727 24.68C160.607 10.56 170.167 3.5 177.407 3.5C181.207 3.5 183.107 4.6 183.107 6.8C183.107 7.4 182.887 8.14 182.447 9.02C181.887 9.94 181.367 10.4 180.887 10.4C180.687 10.4 180.587 10.34 180.587 10.22C180.587 10.22 180.647 10.14 180.767 9.98C180.927 9.82 181.127 9.6 181.367 9.32C181.887 8.72 182.147 8.06 182.147 7.34C182.147 5.9 181.147 5.18 179.147 5.18C176.787 5.18 174.147 5.88 171.227 7.28C164.787 10.4 157.267 16.74 148.667 26.3C144.227 31.14 141.167 34.32 139.487 35.84C135.207 39.64 131.447 41.54 128.207 41.54C127.687 41.54 127.147 41.48 126.587 41.36L126.527 41.3C126.527 41.22 127.187 40.88 128.507 40.28C128.787 40.12 129.067 39.96 129.347 39.8C129.667 39.6 129.967 39.4 130.247 39.2C130.967 38.64 132.147 36.74 133.787 33.5C134.347 32.38 134.887 31.28 135.407 30.2C135.927 29.12 136.447 28.04 136.967 26.96C137.647 25.68 138.307 24.4 138.947 23.12C139.627 21.84 140.307 20.58 140.987 19.34C141.827 17.82 142.627 16.48 143.387 15.32C144.187 14.12 144.907 13.12 145.547 12.32L143.927 11.6C139.367 14.36 134.647 19.12 129.767 25.88C120.847 38.24 111.987 44.42 103.187 44.42ZM103.247 43.76C107.087 43.76 110.827 42.52 114.467 40.04C115.747 39.16 117.107 38.04 118.547 36.68C120.027 35.32 121.607 33.7 123.287 31.82C124.007 31.02 124.887 30.02 125.927 28.82C127.007 27.62 128.267 26.22 129.707 24.62C130.747 23.42 131.787 22.22 132.827 21.02C133.907 19.82 134.987 18.64 136.067 17.48C137.347 16.08 138.587 14.88 139.787 13.88C140.987 12.84 142.127 11.96 143.207 11.24C140.247 9.92 137.747 8.84 135.707 8C133.667 7.12 132.087 6.48 130.967 6.08C128.607 5.28 126.347 4.68 124.187 4.28C122.067 3.84 120.027 3.62 118.067 3.62C114.827 3.62 111.847 4.18 109.127 5.3C106.287 6.42 103.927 8.2 102.047 10.64C100.087 13.2 99.1073 15.98 99.1073 18.98C99.1073 19.42 99.1273 19.86 99.1673 20.3C99.2473 20.7 99.3273 21.1 99.4073 21.5C100.367 21.26 101.327 21.14 102.287 21.14C102.727 21.14 103.127 21.16 103.487 21.2C103.887 21.24 104.287 21.3 104.687 21.38C106.567 21.74 108.067 22.7 109.187 24.26C110.347 25.86 110.867 27.58 110.747 29.42C113.987 29.38 116.927 28.42 119.567 26.54C122.447 24.42 123.887 21.82 123.887 18.74C123.887 16.42 123.067 14.44 121.427 12.8C119.907 11.16 117.947 10.34 115.547 10.34C113.747 10.34 112.087 10.92 110.567 12.08C109.007 13.4 108.227 14.94 108.227 16.7C108.227 18.3 108.927 19.46 110.327 20.18V20.24C110.607 20.28 110.747 20.48 110.747 20.84C110.747 20.84 110.727 20.86 110.687 20.9C110.687 20.9 110.667 20.9 110.627 20.9C110.507 20.9 110.287 20.8 109.967 20.6C108.407 19.56 107.627 18.18 107.627 16.46C107.627 14.46 108.487 12.78 110.207 11.42C111.727 10.14 113.547 9.5 115.667 9.5C118.227 9.5 120.387 10.36 122.147 12.08C123.987 13.84 124.907 15.94 124.907 18.38C124.907 21.9 123.367 24.78 120.287 27.02C117.527 29.1 114.327 30.12 110.687 30.08C110.407 32.08 109.287 33.82 107.327 35.3C106.447 35.94 105.507 36.44 104.507 36.8C103.507 37.12 102.447 37.28 101.327 37.28C100.407 37.28 99.9473 37.16 99.9473 36.92C99.9473 36.76 100.367 36.68 101.207 36.68C101.447 36.68 101.727 36.66 102.047 36.62C102.407 36.58 102.787 36.52 103.187 36.44C106.467 35.72 108.527 33.58 109.367 30.02C103.607 29.54 99.9673 27.1 98.4473 22.7C96.3273 23.46 94.6273 24.82 93.3473 26.78C92.1873 28.66 91.6073 30.78 91.6073 33.14C91.6073 33.74 91.6473 34.34 91.7273 34.94C91.8073 35.5 91.9273 36.08 92.0873 36.68C92.6873 38.92 94.1273 40.7 96.4073 42.02C98.5273 43.18 100.807 43.76 103.247 43.76ZM152.507 43.82C150.787 43.82 149.927 42.34 149.927 39.38C149.927 35.82 150.827 32.18 152.627 28.46C153.347 27.02 154.467 25.3 155.987 23.3C156.587 22.54 157.227 21.78 157.907 21.02C158.587 20.22 159.327 19.38 160.127 18.5C160.567 17.98 161.167 17.34 161.927 16.58C162.687 15.78 163.587 14.84 164.627 13.76C167.347 11.04 168.847 9.68 169.127 9.68C169.207 9.68 169.147 9.8 168.947 10.04C168.907 10.12 168.787 10.26 168.587 10.46C168.427 10.66 168.187 10.92 167.867 11.24C166.147 13.08 164.467 15.24 162.827 17.72C161.747 19.32 160.687 21.08 159.647 23C158.607 24.88 157.567 26.92 156.527 29.12C155.287 31.88 154.327 34.28 153.647 36.32C153.007 38.32 152.687 39.98 152.687 41.3C152.687 42.42 153.027 42.98 153.707 42.98C154.067 42.98 154.807 42.64 155.927 41.96C156.967 41.28 157.647 40.74 157.967 40.34C158.087 40.18 158.247 40.1 158.447 40.1C158.527 40.18 158.567 40.24 158.567 40.28C158.567 40.32 158.527 40.38 158.447 40.46C156.287 42.7 154.307 43.82 152.507 43.82ZM151.667 13.7C152.667 13.7 153.167 13.2 153.167 12.2C153.167 11.36 152.767 10.7 151.967 10.22C151.247 9.86 150.447 9.68 149.567 9.68C148.047 9.68 146.327 10.22 144.407 11.3C144.687 11.42 144.947 11.54 145.187 11.66C145.427 11.74 145.667 11.82 145.907 11.9C146.787 10.98 147.487 10.52 148.007 10.52C148.087 10.52 148.127 10.54 148.127 10.58C147.927 10.82 147.707 11.08 147.467 11.36C147.227 11.6 146.947 11.88 146.627 12.2C147.987 12.68 149.087 13.06 149.927 13.34C150.767 13.58 151.347 13.7 151.667 13.7ZM109.487 29.36C109.527 29.2 109.547 28.94 109.547 28.58C109.547 27.22 109.167 25.9 108.407 24.62C107.567 23.38 106.467 22.6 105.107 22.28C104.667 22.2 104.207 22.14 103.727 22.1C103.247 22.02 102.787 21.98 102.347 21.98C101.387 21.98 100.487 22.1 99.6473 22.34C100.327 24.42 101.587 26.08 103.427 27.32C105.147 28.48 107.167 29.16 109.487 29.36ZM160.16 54.44C158 54.44 156.92 53.7 156.92 52.22C156.92 50.22 159.08 47.78 163.4 44.9C164.96 43.86 166.52 42.9 168.08 42.02C169.68 41.18 171.26 40.44 172.82 39.8C172.94 39.44 173.08 39 173.24 38.48C173.44 37.92 173.64 37.28 173.84 36.56C173.92 36.28 174.06 35.8 174.26 35.12C174.5 34.4 174.82 33.46 175.22 32.3C172.22 38.18 169.16 41.12 166.04 41.12C163.48 41.12 162.2 39.42 162.2 36.02C162.2 32.86 163.4 29.72 165.8 26.6C168.4 23.24 171.18 21.56 174.14 21.56C176.22 21.56 177.26 22.78 177.26 25.22C177.26 25.82 177.2 26.46 177.08 27.14C179.12 22.5 180.9 20.18 182.42 20.18C182.94 20.18 183.2 20.42 183.2 20.9C183.2 21.26 182.84 21.5 182.12 21.62C181.2 21.78 180.52 22.06 180.08 22.46C179.44 23.14 178.8 24.14 178.16 25.46C177.52 26.74 176.92 28.38 176.36 30.38C175.96 31.86 175.58 33.34 175.22 34.82C174.86 36.26 174.5 37.72 174.14 39.2C176.02 38.56 177.68 37.56 179.12 36.2C180.6 34.8 181.84 33.08 182.84 31.04C182.92 30.92 183 30.86 183.08 30.86C183.16 30.86 183.22 30.92 183.26 31.04C183.3 31.12 183.28 31.22 183.2 31.34C182.68 32.42 181.96 33.52 181.04 34.64C180.16 35.76 179.12 36.78 177.92 37.7C176.76 38.58 175.46 39.22 174.02 39.62L173.18 42.98C171.82 48.54 168.74 52.12 163.94 53.72C162.5 54.2 161.24 54.44 160.16 54.44ZM166.34 40.64C168.06 40.64 169.96 39.2 172.04 36.32C172.84 35.24 173.56 34.16 174.2 33.08C174.84 31.96 175.38 30.86 175.82 29.78C176.14 28.94 176.38 28.14 176.54 27.38C176.7 26.58 176.78 25.8 176.78 25.04C176.78 23.12 176.08 22.16 174.68 22.16H174.2C172.96 22.4 171.56 23.58 170 25.7C168.64 27.42 167.64 29.08 167 30.68C166.36 32.2 165.86 33.62 165.5 34.94C165.14 36.26 164.96 37.46 164.96 38.54C164.96 39.94 165.42 40.64 166.34 40.64ZM160.04 53.96C163.12 53.96 166.54 50.96 170.3 44.96C170.54 44.56 170.82 44.04 171.14 43.4C171.5 42.8 171.88 42.1 172.28 41.3C172.4 41.1 172.52 40.76 172.64 40.28C169.72 41.6 167.1 43.02 164.78 44.54C162.5 46.1 160.54 47.76 158.9 49.52C157.94 50.52 157.46 51.46 157.46 52.34C157.46 53.42 158.32 53.96 160.04 53.96ZM185.376 41.18C182.536 41.18 181.116 39.78 181.116 36.98C181.116 34.78 181.936 32 183.576 28.64C183.656 28.48 184.036 27.78 184.716 26.54C185.436 25.26 186.456 23.44 187.776 21.08H184.656L184.536 20.96L184.596 20.6L184.656 20.54H188.076L192.396 12.98C192.756 13.14 193.176 13.22 193.656 13.22C194.216 13.22 194.816 13.02 195.456 12.62C196.136 12.26 196.596 11.86 196.836 11.42L197.016 11.48L191.616 20.54H195.756L195.816 20.6V20.96L195.696 21.08H191.316L187.236 28.28C184.796 32.56 183.576 35.86 183.576 38.18C183.576 39.82 184.216 40.64 185.496 40.64C187.496 40.64 189.516 39.52 191.556 37.28C192.116 36.68 192.776 35.78 193.536 34.58C194.296 33.38 194.936 32.24 195.456 31.16C195.536 30.96 195.636 30.9 195.756 30.98C195.916 31.02 195.956 31.14 195.876 31.34C195.276 32.54 194.636 33.68 193.956 34.76C193.316 35.84 192.576 36.84 191.736 37.76C189.656 40.04 187.536 41.18 185.376 41.18Z" fill="#0a6c74"/>
</svg>
